<svg width="117" height="117" viewBox="0 0 117 117" fill="none" xmlns="http://www.w3.org/2000/svg">
<path d="M58.5 0C26.2326 0 0 26.2326 0 58.5C0 90.7674 26.2326 117 58.5 117C90.7674 117 117 90.7674 117 58.5C117 26.2326 90.7674 0 58.5 0ZM58.5 33.4989C68.5994 33.4989 76.8507 41.7505 76.8507 51.8497C76.8507 61.9489 68.5992 70.2004 58.5 70.2004C48.4008 70.2004 40.1493 61.9489 40.1493 51.8497C40.1493 41.7505 48.4008 33.4989 58.5 33.4989ZM26.4789 93.9695V91.26C26.4789 83.5008 32.7598 77.0973 40.6417 77.0973H76.3575C84.1166 77.0973 90.5202 83.3781 90.5202 91.26V93.9695C82.0221 101.605 70.8145 106.285 58.4991 106.285C46.1851 106.285 34.9782 101.605 26.4803 93.9695H26.4789Z" fill="#00789E"/>
</svg>
